# xmcd
#
# Track frame offsets: 
#        150
#        5030
#        28363
#        50690
#        75537
#        90038
#        106910
#        130865
#        153687
#        175013
#        193212
#        215675
#
# Disc length: 3190 seconds
#
# Revision: 1
# Processed by: cddbd v1.5.2PL0 Copyright (c) Steve Scherf et al.
# Submitted via: ExactAudioCopyFreeDBPlugin 1.0
#
DISCID=9e0c740c
DTITLE=郷ひろみ - PERIOD 〜この世界のどこかに〜
DYEAR=2001
DGENRE=JPop
TTITLE0=五時までに(Opening)
TTITLE1=Jealous Guy
TTITLE2=誘惑
TTITLE3=強く儚い魔法で
TTITLE4=この世界のどこかに(a cappella version)
TTITLE5=MAGMA
TTITLE6=おなじ道・おなじ場所
TTITLE7=Kiss in Heaven
TTITLE8=きみを想う
TTITLE9=獣は裸になりたがる
TTITLE10=Only for you〜この永遠がある限り〜
TTITLE11=五時までに(album version)
EXTD=YEAR: 2001
EXTT0=
EXTT1=
EXTT2=
EXTT3=
EXTT4=
EXTT5=
EXTT6=
EXTT7=
EXTT8=
EXTT9=
EXTT10=
EXTT11=
PLAYORDER=
